<svg id="information" xmlns="http://www.w3.org/2000/svg" width="86.045" height="86.045" viewBox="0 0 86.045 86.045">
  <path id="Path_8" data-name="Path 8" d="M43.023,0A43.023,43.023,0,1,0,86.045,43.023,43.072,43.072,0,0,0,43.023,0Zm0,78.223a35.2,35.2,0,1,1,35.2-35.2A35.24,35.24,0,0,1,43.023,78.223Z" transform="translate(0 0)" fill="#b3b3b3"/>
  <path id="Path_9" data-name="Path 9" d="M150.323,70a5.322,5.322,0,1,0,5.321,5.324A5.328,5.328,0,0,0,150.323,70Z" transform="translate(-107.301 -51.8)" fill="#b3b3b3"/>
  <path id="Path_10" data-name="Path 10" d="M153.991,140A3.992,3.992,0,0,0,150,143.991v23.948a3.991,3.991,0,1,0,7.983,0V143.991A3.991,3.991,0,0,0,153.991,140Z" transform="translate(-110.969 -103.924)" fill="#b3b3b3"/>
</svg>
